<svg
  viewBox="0 0 512 512"
  xmlns="http://www.w3.org/2000/svg">
  <style>
    .key {
      fill: #3F3F46;
    }
  </style>
  <path class="key" d="M 124.8 108.8 C 116 108.8 108.8 116 108.8 124.8 V 387.2 C 108.8 396 116 403.2 124.8 403.2 H 387.2 C 396 403.2 403.2 396 403.2 387.2 V 124.8 C 403.2 116 396 108.8 387.2 108.8 Z M 256.05 173.99 334.49 252.53 317.05 270.19 287.9 241.27 C 284.65 237.94 281.37 234.51 278.05 230.97 L 268.34 220.43 C 268.47 223.16 268.57 225.95 268.62 228.81 268.77 232.56 268.84 236.25 268.84 239.86 V 338.01 H 243.27 V 239.86 C 243.27 236.25 243.31 232.56 243.38 228.81 243.49 225.87 243.62 223 243.78 220.18 242.14 221.96 240.49 223.75 238.83 225.56 236.37 228.3 233.88 230.97 231.35 233.57 228.9 236.18 226.48 238.74 224.1 241.27 L 195.06 270.19 177.51 252.53 Z M 416 80 C 424.8 80 432 87.2 432 96 V 416 C 432 424.8 424.8 432 416 432 H 96 C 87.2 432 80 424.8 80 416 V 96 C 80 87.2 87.2 80 96 80 Z M 96 32 C 60.7 32 32 60.7 32 96 V 416 C 32 451.3 60.7 480 96 480 H 416 C 451.3 480 480 451.3 480 416 V 96 C 480 60.7 451.3 32 416 32 Z" />
</svg>
